#N canvas 1125 445 616 394 12;
#X msg 247 132 open guitar.wav;
#X obj 245 329 dac~;
#X msg 179 190 0;
#X msg 247 189 1;
#X obj 247 57 r on;
#X obj 247 91 t b;
#X obj 179 100 t b;
#X obj 179 57 r off;
#X obj 247 159 t b a;
#X obj 28 21 loadbang;
#X msg 95 19 \; pd dsp 1;
#X obj 247 229 readsf~;
#X obj 394 59 r eq;
#X obj 394 92 * 1000;
#X obj 246 270 hip~ 1000;
#X connect 0 0 8 0;
#X connect 2 0 11 0;
#X connect 3 0 11 0;
#X connect 4 0 5 0;
#X connect 5 0 0 0;
#X connect 6 0 2 0;
#X connect 7 0 6 0;
#X connect 8 0 3 0;
#X connect 8 1 11 0;
#X connect 9 0 10 0;
#X connect 11 0 14 0;
#X connect 11 1 0 0;
#X connect 12 0 13 0;
#X connect 13 0 14 1;
#X connect 14 0 1 0;
#X connect 14 0 1 1;
