#N canvas 1835 599 450 300 12;
#X msg 247 132 open guitar.wav;
#X obj 248 268 dac~;
#X obj 247 228 readsf~ 2;
#X msg 179 190 0;
#X msg 247 189 1;
#X obj 247 57 r on;
#X obj 247 91 t b;
#X obj 179 100 t b;
#X obj 179 57 r off;
#X obj 247 159 t b a;
#X obj 28 21 loadbang;
#X msg 95 19 \; pd dsp 1;
#X connect 0 0 9 0;
#X connect 2 0 1 0;
#X connect 2 1 1 1;
#X connect 2 2 0 0;
#X connect 3 0 2 0;
#X connect 4 0 2 0;
#X connect 5 0 6 0;
#X connect 6 0 0 0;
#X connect 7 0 3 0;
#X connect 8 0 7 0;
#X connect 9 0 4 0;
#X connect 9 1 2 0;
#X connect 10 0 11 0;
