#N canvas 1479 610 988 802 12;
#X obj 213 119 r vol;
#X obj 613 139 r freq;
#X obj 334 320 dac~;
#X obj 613 205 osc~;
#X obj 420 127 hsl 162 19 0 1 0 0 empty empty empty -2 -10 0 12 #fcfcfc #000000 #000000 0 1;
#X text 78 79 input volume values 0-1 parameter name vol;
#X obj 23 118 hsl 162 19 0 1 0 0 empty empty empty -2 -10 0 12 #fcfcfc #000000 #000000 0 1;
#X text 30 151 test Volume slider;
#X text 432 153 test frequency slider;
#X text 507 78 input frequency values 0-1 parameter name freq;
#X msg 766 99 \; pd dsp 1;
#X obj 766 71 loadbang;
#X obj 330 256 *~ 0.1;
#X obj 613 172 * 5000;
#X connect 0 0 12 0;
#X connect 1 0 13 0;
#X connect 3 0 12 0;
#X connect 4 0 13 0;
#X connect 6 0 12 1;
#X connect 11 0 10 0;
#X connect 12 0 2 1;
#X connect 12 0 2 0;
#X connect 13 0 3 0;
